<?xml version="1.0" encoding="UTF-8"?>
<svg width="474px" height="448px" viewBox="0 0 474 448" version="1.1" xmlns="http://www.w3.org/2000/svg" xmlns:xlink="http://www.w3.org/1999/xlink">
    <!-- Generator: Sketch 57.1 (83088) - https://sketch.com -->
    <title>shakepay</title>
    <desc>Created with Sketch.</desc>
    <g id="Illustrations" stroke="none" stroke-width="1" fill="none" fill-rule="evenodd">
        <g id="shakepay" transform="translate(8.000000, 10.000000)">
            <path d="M190.951515,61.0603407 L266.761005,61.0603407 L378.344118,-4.66649377 L461.641181,46.389951 L461.641181,318.134172 L268.953699,433.046947 L188.74965,433.046947 L-4,318.134551 L-4,46.3728833 L80.4896128,-4.66374092 L190.951515,61.0603407 Z" id="Path-6" stroke="#FFFFFF" stroke-width="8" fill="#30768C"></path>
            <polygon id="Path" fill="#3CA2E0" points="11.8515205 180.887843 11.8515205 265.741634 156.016196 182.629785 189.607104 202.156782 189.607104 293.629785 267.636886 293.629785 267.636886 202.156782 301.686845 182.629785 445.851521 266.34215 446.851521 177.089866 271.947929 75.6297849 189.607104 75.6297849"></polygon>
            <polygon id="Path-2" fill="#FFFFFF" points="11.8515205 264.109821 11.8515205 308.570532 44.9137742 328.629785 44.9137742 291.196966 156.016196 227.374288 189.561787 247.294234 189.851521 202.351258 156.016196 182.629785"></polygon>
            <polygon id="Path-2" fill="#FFFFFF" transform="translate(356.744203, 257.629785) scale(-1, 1) translate(-356.744203, -257.629785) " points="267.636886 266.34215 267.636886 312.020963 300.699139 332.629785 300.699139 294.171409 411.801561 228.600165 445.636886 249.200802 445.851521 202.156782 411.801561 182.629785"></polygon>
            <path d="M267.851521,293.629785 L339.1047,336.216078 L339.1047,373.569669 L267.851521,416.889896 L189.851521,416.889896 L117.526216,373.569669 L117.526216,336.216078 L189.607104,293.629785 L267.851521,293.629785 Z M267.851521,348.961243 L191.00866,348.961243 L191.00866,366.297095 L229.351521,389.792104 L267.851521,366.297095 L267.851521,348.961243 Z" id="Combined-Shape" fill="#FFFFFF"></path>
            <polygon id="Path-5" fill="#FFFFFF" points="44.8515205 162.02041 44.8515205 73.0567808 82.2030127 51.6297849 155.294551 96.4140187"></polygon>
            <polygon id="Path-5" fill="#FFFFFF" transform="translate(360.382360, 103.825098) scale(-1, 1) translate(-360.382360, -103.825098) " points="304.470169 159.02041 304.470169 70.0567808 341.821661 48.6297849 416.294551 94.3076062"></polygon>
            <polygon id="Path-7" fill="#0A4654" points="267.851521 249.200802 303.531769 271.67348 337.775373 250.136822 301.686845 228.600165"></polygon>
            <polygon id="Path-7" fill="#0A4654" points="122.025919 246.852334 157.531769 269.703099 189.396631 247.230422 155.686845 226.629785"></polygon>
        </g>
    </g>
</svg>